# xmcd CD database file
#
# Track frame offsets:
#	150
#	17052
#	34065
#	47262
#	63615
#	78637
#	96937
#	111580
#	127172
#	145312
#	158302
#	169830
#	182650
#	205660
#	223747
#	242882
#	276297
#	289582
#
# Disc length: 4218 seconds
#
# Revision: 0
# Processed by: cddbd v1.4PL0 Copyright (c) Steve Scherf et al.
# Submitted via: CDex 1.50Beta6
#
DISCID=0b107812
DTITLE=Kid Sheik and Jim Robinson - New Orleans Stompers
DYEAR=2000
DGENRE=Blues
TTITLE0=South
TTITLE1=Last Night on the Back Porch
TTITLE2=Bye and Bye
TTITLE3=Bye Bye Blackbird
TTITLE4=In the Gutter
TTITLE5=Song of the Islands
TTITLE6=Lord, Lord, Lord
TTITLE7=What a Friend We Have In Jesus
TTITLE8=Dippermouth Blues
TTITLE9=Dipsey Doodle
TTITLE10=My Darling Nellie Grey
TTITLE11=Whoopie Blues
TTITLE12=Birth of the Blues
TTITLE13=Back Home Again in Indiana
TTITLE14=When You and I Were Young
TTITLE15=Down By The Riverside
TTITLE16=Angry
TTITLE17=Hindustan
EXTD=YEAR: 2000
EXTT0=
EXTT1=
EXTT2=
EXTT3=
EXTT4=
EXTT5=
EXTT6=
EXTT7=
EXTT8=
EXTT9=
EXTT10=
EXTT11=
EXTT12=
EXTT13=
EXTT14=
EXTT15=
EXTT16=
EXTT17=
PLAYORDER=
